# xmcd
#
# Track frame offsets:
#   150
#   16412
#   31547
#   50213
#   69421
#   85354
#   104492
#   118589
#   135754
#   152110
#   181099
#   201826
#   222845
#   239023
#
# Disc length: 3425 seconds
#
# Revision: 0
# Processed by: cddbd v1.5.1PL0 Copyright (c) Steve Scherf et al.
# Submitted via: GXTranscoder 2.0.1939
#
DISCID=bc0d5f0e
DTITLE=HJS - ABC
DYEAR=2004
DGENRE=Books and Spoken
TTITLE0=1
TTITLE1=2
TTITLE2=3
TTITLE3=4
TTITLE4=5
TTITLE5=6
TTITLE6=7
TTITLE7=8
TTITLE8=9
TTITLE9=10
TTITLE10=11
TTITLE11=12
TTITLE12=13
TTITLE13=14
EXTD=
EXTT0=
EXTT1=
EXTT2=
EXTT3=
EXTT4=
EXTT5=
EXTT6=
EXTT7=
EXTT8=
EXTT9=
EXTT10=
EXTT11=
EXTT12=
EXTT13=
PLAYORDER=
